# xmcd CD database file
#
# Track frame offsets:
#	150
#	11357
#	24689
#	35368
#	64223
#	75990
#	100324
#	114119
#	133673
#	146293
#	163630
#	178957
#	187942
#	210889
#	247851
#	273318
#	293270
#	317354
#
# Disc length: 4713 seconds
#
# Revision: 0
# Processed by: cddbd v1.5.2PL0 Copyright (c) Steve Scherf et al.
# Submitted via: CDex 1.70beta2
#
DISCID=dc126712
DTITLE=Dave Brubeck Quartet - Countdown - Time in Outer Space
DYEAR=1961
DGENRE=Jazz
TTITLE0=Countdown
TTITLE1=Eleven Four
TTITLE2=Why Phillis Waltz
TTITLE3=Someday My Prince Will Come
TTITLE4=Castilian Blues
TTITLE5=Castilian Drums
TTITLE6=Fast Life
TTITLE7=Waltz Limp
TTITLE8=Three's a Crowd
TTITLE9=Danse Duet
TTITLE10=Back to Earth
TTITLE11=Waltz Limp (alt. take)
TTITLE12=Gone with the Wind (live)
TTITLE13=Lonesome Road (live)
TTITLE14=Take the 'A' Train (live)
TTITLE15=Three to Get Ready (live)
TTITLE16=Take Five (live)
TTITLE17=Blue Rondo a la Turk (live)
EXTD=YEAR: 1961
EXTT0=
EXTT1=
EXTT2=
EXTT3=
EXTT4=
EXTT5=
EXTT6=
EXTT7=
EXTT8=
EXTT9=
EXTT10=
EXTT11=
EXTT12=
EXTT13=
EXTT14=
EXTT15=
EXTT16=
EXTT17=
PLAYORDER=
